<?xml version="1.0" encoding="UTF-8" standalone="no"?>
<svg
   width="119.20225"
   height="72.224724"
   viewBox="0 0 119.20225 72.224724"
   fill="none"
   version="1.1"
   id="svg2"
   xml:space="preserve"
   xmlns="http://www.w3.org/2000/svg"
   xmlns:svg="http://www.w3.org/2000/svg"><defs
     id="defs2"><clipPath
       id="clip0_283_227"><rect
         width="35"
         height="35"
         fill="#ffffff"
         transform="translate(5,18)"
         id="rect8"
         x="0"
         y="0" /></clipPath></defs><g
     clip-path="url(#clip0_283_227)"
     id="g7"
     transform="matrix(0.78170144,0,0,0.78170144,-3.1782038,9.0979136)"><mask
       id="mask0_283_227"
       maskUnits="userSpaceOnUse"
       x="5"
       y="18"
       width="35"
       height="35"><path
         d="M 22.5,18 C 32.16,18 40,25.84 40,35.5 40,45.16 32.16,53 22.5,53 12.84,53 5,45.16 5,35.5 5,25.84 12.84,18 22.5,18 Z"
         fill="#ffffff"
         id="path1-9" /></mask><g
       mask="url(#mask0_283_227)"
       id="g2"><path
         d="M 5,18 40,53 M 40,18 5,53"
         stroke="#222623"
         stroke-miterlimit="22.9256"
         id="path2-9" /></g><path
       d="M 22.5,18 C 32.16,18 40,25.84 40,35.5 40,45.16 32.16,53 22.5,53 12.84,53 5,45.16 5,35.5 5,25.84 12.84,18 22.5,18 Z"
       fill="#222623"
       id="path3-70"
       style="fill:#ffffff" /><mask
       id="mask1_283_227"
       maskUnits="userSpaceOnUse"
       x="14"
       y="32"
       width="17"
       height="14"><path
         d="m 22.1418,36.2672 -6.6839,-3.816 -0.18,0.276 c -2.052,3.156 -1.596,7.2839 1.104,9.9359 3.1799,3.12 8.3399,3.12 11.5199,0 2.7,-2.652 3.156,-6.7799 1.104,-9.9359 l -0.18,-0.276 z"
         fill="#ffffff"
         id="path4" /></mask><g
       mask="url(#mask1_283_227)"
       id="g5"><path
         d="m 22.1421,45.2432 c 4.5,0 8.148,-3.648 8.148,-8.148 0,-4.5 -3.648,-8.1479 -8.148,-8.1479 -4.5,0 -8.148,3.6479 -8.148,8.1479 0,4.5 3.648,8.148 8.148,8.148 z"
         fill="#ffffff"
         id="path5"
         style="fill:#000000" /></g><path
       d="m 22.0117,22 -6,8.7446 6,3.2554 z"
       fill="#ffffff"
       id="path6"
       style="fill:#000000" /><path
       d="m 22.0117,34 6,-3.2554 -6,-8.7446 z"
       fill="#ffffff"
       id="path7"
       style="fill:#000000" /></g><path
     d="m 37.245807,28.169438 h 2.136 v 15.252 h 8.016 v 2.028 h -10.152 z m 22.2759,0 h 2.136 v 17.28 h -2.136 z m 16.786,0 h 5.3281 c 0.912,0 1.64,0.036 2.184,0.108 1.296,0.168 2.4,0.648 3.312,1.44 0.912,0.784 1.6,1.792 2.064,3.024 0.464,1.224 0.696,2.58 0.696,4.068 0,1.496 -0.232,2.86 -0.696,4.092 -0.464,1.224 -1.152,2.228 -2.064,3.012 -0.912,0.784 -2.016,1.26 -3.312,1.428 -0.536,0.072 -1.264,0.108 -2.184,0.108 h -5.3281 z m 5.3281,15.24 c 0.88,0 1.548,-0.044 2.004,-0.132 1.344,-0.248 2.344,-0.96 3,-2.136 0.656,-1.176 0.984,-2.62 0.984,-4.332 0,-1.728 -0.332,-3.176 -0.996,-4.344 -0.656,-1.176 -1.652,-1.884 -2.988,-2.124 -0.456,-0.088 -1.124,-0.132 -2.004,-0.132 h -3.1321 v 13.2 z m 29.161003,2.4 c -1.688,0 -3.14,-0.376 -4.356,-1.128 -1.208,-0.752 -2.128,-1.804 -2.76,-3.156 -0.632,-1.36 -0.948,-2.932 -0.948,-4.716 0,-1.784 0.316,-3.352 0.948,-4.704 0.632,-1.36 1.552,-2.416 2.76,-3.168 1.216,-0.752 2.668,-1.128 4.356,-1.128 1.688,0 3.136,0.376 4.344,1.128 1.216,0.752 2.14,1.808 2.772,3.168 0.632,1.352 0.948,2.92 0.948,4.704 0,1.784 -0.316,3.356 -0.948,4.716 -0.632,1.352 -1.556,2.404 -2.772,3.156 -1.208,0.752 -2.656,1.128 -4.344,1.128 z m -5.796,-8.928 c 0,1.392 0.22,2.604 0.66,3.636 0.44,1.032 1.096,1.832 1.968,2.4 0.88,0.568 1.952,0.852 3.216,0.852 1.248,0 2.3,-0.288 3.156,-0.864 0.864,-0.584 1.512,-1.396 1.944,-2.436 0.432,-1.048 0.648,-2.268 0.648,-3.66 0,-1.408 -0.22,-2.632 -0.66,-3.672 -0.44,-1.048 -1.096,-1.856 -1.968,-2.424 -0.872,-0.576 -1.944,-0.864 -3.216,-0.864 -1.256,0 -2.316,0.296 -3.18,0.888 -0.856,0.584 -1.5,1.404 -1.932,2.46 -0.424,1.048 -0.636,2.276 -0.636,3.684 z"
     fill="#222623"
     id="path8"
     style="fill:#ffffff" /></svg>
