<?xml version="1.0" encoding="UTF-8" standalone="no"?>
<svg
   width="71.55056"
   height="72.674156"
   viewBox="0 0 71.55056 72.674156"
   fill="none"
   version="1.1"
   id="svg2"
   xml:space="preserve"
   xmlns="http://www.w3.org/2000/svg"
   xmlns:svg="http://www.w3.org/2000/svg"><defs
     id="defs2" /><path
     fill-rule="evenodd"
     clip-rule="evenodd"
     d="m 36.980062,28.458257 6.9754,16.9058 c 0.3942,0.8739 0.9769,1.302 1.7481,1.3058 h 0.617 c 0.7713,0 1.3555,-0.4319 1.7482,-1.3058 l 6.9754,-16.9073 c 0.0551,-0.154 0.0842,-0.3163 0.0857,-0.4795 0.007,-0.1725 -0.0205,-0.3446 -0.0793,-0.5064 -0.0589,-0.1617 -0.1484,-0.3098 -0.2635,-0.4356 -0.12,-0.1225 -0.2645,-0.2175 -0.424,-0.2795 -0.1602,-0.0622 -0.3312,-0.0894 -0.5022,-0.0797 -0.2581,0.0027 -0.5093,0.0863 -0.7198,0.2397 -0.2182,0.1611 -0.3898,0.38 -0.4963,0.6334 l -6.6341,16.5474 -6.6319,-16.5474 c -0.1059,-0.252 -0.278,-0.4702 -0.4978,-0.6334 -0.2106,-0.1534 -0.4617,-0.237 -0.7198,-0.2397 -0.1708,-0.0096 -0.3416,0.0176 -0.5015,0.0797 -0.1595,0.062 -0.304,0.157 -0.4233,0.2795 -0.115,0.1258 -0.2046,0.2739 -0.2634,0.4356 -0.0589,0.1618 -0.0858,0.3339 -0.0793,0.5064 0.002,0.1639 0.0307,0.3263 0.0856,0.4802 z m 20.8428,17.2765 c 0.0618,0.1562 0.155,0.2979 0.2735,0.4174 0.1149,0.1252 0.2557,0.2223 0.412,0.2841 0.158,0.0621 0.3272,0.0881 0.4956,0.0758 h 11.3293 c 0.3197,0.0039 0.6282,-0.1194 0.857,-0.3423 0.117,-0.1057 0.2101,-0.2351 0.2719,-0.3806 0.0619,-0.1456 0.0924,-0.3018 0.088,-0.4588 0.003,-0.1601 -0.0276,-0.3186 -0.0894,-0.4656 -0.0626,-0.1481 -0.1547,-0.2809 -0.2705,-0.3899 -0.1095,-0.1186 -0.2424,-0.2118 -0.3898,-0.2734 -0.1481,-0.0623 -0.3072,-0.092 -0.4672,-0.0873 h -10.0261 v -6.2694 h 9.0142 c 0.1582,0.0023 0.3153,-0.0269 0.4627,-0.0858 0.1465,-0.0582 0.2804,-0.1453 0.3942,-0.2565 0.117,-0.1057 0.2102,-0.2352 0.2728,-0.3799 0.0626,-0.1448 0.0916,-0.3018 0.0879,-0.4588 7e-4,-0.16 -0.0306,-0.3178 -0.0924,-0.4649 -0.0619,-0.147 -0.1528,-0.2803 -0.2683,-0.3913 -0.1088,-0.1172 -0.2414,-0.2106 -0.3897,-0.2719 -0.1482,-0.0621 -0.3073,-0.0918 -0.4672,-0.0873 h -9.0142 v -6.2365 h 10.0261 c 0.319,0.0054 0.6275,-0.1164 0.857,-0.3377 0.117,-0.1057 0.2101,-0.2352 0.2719,-0.3799 0.0619,-0.1448 0.0924,-0.3018 0.088,-0.4595 0.003,-0.1603 -0.0277,-0.3193 -0.0894,-0.4664 -0.0629,-0.1481 -0.155,-0.2811 -0.2705,-0.3906 -0.1088,-0.1172 -0.2422,-0.2099 -0.3898,-0.2719 -0.1475,-0.0621 -0.307,-0.0919 -0.4672,-0.0873 h -11.3293 c -0.1692,-0.0062 -0.3376,0.0245 -0.4941,0.088 -0.1559,0.0638 -0.2969,0.1609 -0.4135,0.2849 -0.2378,0.249 -0.3667,0.5806 -0.3607,0.9245 v 17.1286 c -0.004,0.1678 0.0253,0.334 0.0872,0.4902 z m -19.2646,-0.8501 -6.9746,-16.9074 c -0.3927,-0.8731 -0.9799,-1.3012 -1.7482,-1.3012 h -0.6177 c -0.772,0 -1.354,0.4281 -1.7481,1.3058 l -3.0343,7.3677 h -2.2959 c -0.3316,0.0023 -0.6482,0.134 -0.883,0.3684 -0.1154,0.1145 -0.2075,0.2515 -0.2708,0.403 -0.0633,0.1514 -0.0967,0.3144 -0.098,0.4793 v 0.0168 c 0.001,0.1649 0.0347,0.3278 0.098,0.4793 0.0633,0.1515 0.1554,0.2885 0.2708,0.403 0.234,0.2343 0.5514,0.3668 0.883,0.3684 h 1.234 l -2.8934,7.023 c -0.0552,0.1539 -0.0842,0.3163 -0.0857,0.4794 -0.006,0.1726 0.0205,0.3447 0.0793,0.5064 0.0588,0.1618 0.1484,0.3098 0.2635,0.4357 0.1199,0.1225 0.2645,0.2182 0.424,0.2803 0.1594,0.062 0.3308,0.0896 0.5022,0.0796 0.2586,-0.0038 0.5104,-0.0873 0.7198,-0.2397 0.2191,-0.1631 0.3912,-0.3822 0.4978,-0.6341 l 3.187,-7.9276 h 2.1923 c 0.3316,-0.0023 0.6483,-0.134 0.883,-0.3683 0.1154,-0.1145 0.2075,-0.2515 0.2708,-0.403 0.0634,-0.1515 0.0967,-0.3145 0.098,-0.4793 v -0.0422 c -0.001,-0.1648 -0.0344,-0.3277 -0.0976,-0.4792 -0.0632,-0.1515 -0.1552,-0.2885 -0.2705,-0.403 -0.234,-0.2344 -0.5514,-0.3669 -0.883,-0.3684 h -1.1855 l 2.4515,-6.081 6.6327,16.5474 c 0.1065,0.2534 0.2781,0.4723 0.4963,0.6333 0.2107,0.1536 0.4622,0.2372 0.7205,0.2398 0.1707,0.0091 0.342,-0.0177 0.5015,-0.0797 0.1595,-0.062 0.304,-0.157 0.424,-0.2795 0.2332,-0.2574 0.3562,-0.5959 0.3428,-0.9428 0.007,-0.1647 -0.0216,-0.3286 -0.085,-0.4802 z m -27.8159,-16.9074 6.9746,16.9074 c 0.0628,0.1513 0.0921,0.315 0.0857,0.4794 0.007,0.1725 -0.0204,0.3447 -0.0793,0.5064 -0.0588,0.1617 -0.1484,0.3098 -0.2634,0.4356 -0.1207,0.1228 -0.2652,0.2181 -0.424,0.2796 -0.1595,0.062 -0.3309,0.0896 -0.5015,0.0804 -0.2586,-0.0038 -0.5105,-0.0873 -0.7199,-0.2397 -0.2198,-0.1632 -0.3919,-0.3822 -0.4977,-0.6342 l -6.6319202,-16.5466 -2.43442,6.0818 h 1.18256 c 0.33159,0.0015 0.64903,0.134 0.88301,0.3684 0.11544,0.1145 0.20751,0.2515 0.27085,0.4029 0.0633,0.1515 0.0967,0.3145 0.098,0.4793 v 0.0353 c -0.001,0.1648 -0.0347,0.3278 -0.098,0.4793 -0.0633,0.1515 -0.15541,0.2885 -0.27085,0.403 -0.23398,0.2343 -0.55142,0.3668 -0.88301,0.3683 h -2.2079 l -3.18704,7.9276 c -0.10656,0.2519 -0.27794,0.471 -0.49776,0.6341 -0.20939,0.1524 -0.46051,0.2359 -0.71982001,0.2397 -0.17099,0.0097 -0.34205,-0.0174 -0.50224,-0.0796 -0.15895,-0.0618 -0.30343,-0.1573 -0.42399,-0.2803 -0.23324,-0.2566 -0.35619,-0.5951 -0.34278,-0.9421 0.001,-0.1631 0.0306,-0.3255 0.0857,-0.4794 l 2.89344001,-7.023 h -1.23398 c -0.33010001,-0.0023 -0.64605001,-0.134 -0.88003001,-0.3661 -0.11531,-0.1138 -0.20749,-0.2499 -0.27119,-0.4006 -0.0637,-0.1507 -0.0977,-0.3128 -0.0999,-0.4771 v -0.0168 c 0.001,-0.1649 0.0347,-0.3279 0.098,-0.4793 0.0633,-0.1515 0.15541,-0.2885 0.27084,-0.403 0.23398,-0.2344 0.55142,-0.3669 0.88227001,-0.3692 h 2.29658 l 3.03278,-7.3676 c 0.39494,-0.8777 0.97691,-1.3059 1.74814,-1.3059 h 0.61699 c 0.77196,0 1.3576602,0.4282 1.7496602,1.3013 z"
     fill="#222623"
     id="path1-0"
     style="fill:#ffffff" /></svg>
