<svg width="24" height="24" viewBox="0 0 24 24" fill="none" xmlns="http://www.w3.org/2000/svg">
<g clip-path="url(#clip0_2108_770)">
<path d="M24 12C24 5.37258 18.6274 0 12 0C5.37258 0 0 5.37258 0 12C0 18.6274 5.37258 24 12 24C18.6274 24 24 18.6274 24 12Z" fill="black"/>
<path d="M12.1883 18.8754C11.2175 18.8754 10.3767 18.7174 9.66131 18.4062C8.94594 18.095 8.38851 17.6537 7.98437 17.0916C7.58023 16.5295 7.35262 15.8699 7.29688 15.1174H9.05742C9.10388 15.6237 9.27575 16.0418 9.57305 16.3669C9.87034 16.6967 10.2466 16.9383 10.7065 17.1009C11.1664 17.2588 11.6588 17.3424 12.1837 17.3424C12.7922 17.3424 13.3403 17.2449 13.8234 17.0451C14.3066 16.8454 14.6921 16.5667 14.9755 16.2043C15.2588 15.842 15.3982 15.4239 15.3982 14.9501C15.3982 14.5181 15.2774 14.1651 15.0312 13.891C14.785 13.6169 14.4645 13.3986 14.0604 13.2221C13.6562 13.0456 13.2149 12.8923 12.7318 12.7622L11.106 12.3023C10.0236 11.9957 9.1782 11.5544 8.57432 10.9831C7.97044 10.4117 7.66849 9.67776 7.66849 8.78588C7.66849 8.0287 7.87289 7.36443 8.28167 6.79307C8.69045 6.2217 9.24323 5.7804 9.94467 5.46917C10.6415 5.15794 11.4265 5 12.2952 5C13.1638 5 13.9628 5.15794 14.6457 5.46917C15.3285 5.7804 15.8627 6.20776 16.2576 6.74661C16.6524 7.28546 16.8614 7.89399 16.8847 8.57684H15.2031C15.1241 7.92186 14.8129 7.41088 14.2647 7.0532C13.7166 6.69552 13.043 6.51435 12.2394 6.51435C11.6634 6.51435 11.1524 6.60726 10.7158 6.79771C10.2791 6.98817 9.94002 7.2483 9.69847 7.57347C9.45692 7.90328 9.33614 8.2749 9.33614 8.69762C9.33614 9.16679 9.48014 9.5477 9.77279 9.83106C10.0654 10.1191 10.4092 10.342 10.8133 10.5C11.2128 10.6579 11.5751 10.7833 11.9003 10.8762L13.2474 11.2479C13.6098 11.3454 14.0093 11.4755 14.4459 11.6473C14.8826 11.8146 15.3006 12.0422 15.6955 12.3209C16.095 12.5996 16.4201 12.9573 16.6756 13.3893C16.9311 13.8213 17.0612 14.3509 17.0612 14.9733C17.0612 15.7073 16.8707 16.3716 16.4852 16.9615C16.1043 17.5515 15.5468 18.0206 14.8175 18.3644C14.0882 18.7081 13.2056 18.88 12.1697 18.88L12.1883 18.8754Z" fill="white"/>
<path d="M13.0478 8.5629V15.1173H11.3291V8.5629H13.0478Z" fill="white"/>
</g>
<defs>
<clipPath id="clip0_2108_770">
<rect width="24" height="24" fill="white"/>
</clipPath>
</defs>
</svg>
